PathFileType	4	(X/Y/Z)	H:\MAC\Pilotos\Biomecanica2_gait_2020\Trimmed_walk3.trc
DataRate	CameraRate	NumFrames	NumMarkers	Units	OrigDataRate	OrigDataStartFrame	OrigNumFrames
150.00	150.00	       12	28	mm	150.00	189	       251
Frame#	Time	R.ASIS			L.ASIS			R.PSIS			L.PSIS			L.Iliac.Crest			R.Iliac.Crest			R.GTR			R.Knee			R.HF			R.TT			R.Ankle			R.Heel			R.MT1			R.MT5			L.GTR			L.Knee			L.HF			L.TT			L.Ankle			L.Heel			L.MT1			L.MT5			R.Knee.Medial			R.Ankle.Medial			R.MT2			L.Knee.Medial			L.Ankle.Medial			L.MT2			V_Mid_ASIS			V_Mid_PSIS			V_Pelvis_Origin			V_R.Hip_JC			V_R.Knee_JC_Static			V_R.TT			V_R.Ankle_JC_Static			V_L.Hip_JC			V_Mid_Hip			V_R.MT2_Static			V_R.Knee.Medial			V_R.Ankle.Medial			V_R.TT			V_L.Knee_JC_Static			V_L.TT			V_L.Ankle_JC_Static			V_L.MT2_Static			V_R.Knee_JC			V_R.Ankle_JC			V_L.Knee_JC			V_L.Ankle_JC			V_R.TT_KJC_Static			V_L.TT_KJC_Static			V_R.TT_KJC			V_L.TT_KJC			V_R.MT2			V_L.MT2			
		X1	Y1	Z1	X2	Y2	Z2	X3	Y3	Z3	X4	Y4	Z4	X5	Y5	Z5	X6	Y6	Z6	X7	Y7	Z7	X8	Y8	Z8	X9	Y9	Z9	X10	Y10	Z10	X11	Y11	Z11	X12	Y12	Z12	X13	Y13	Z13	X14	Y14	Z14	X15	Y15	Z15	X16	Y16	Z16	X17	Y17	Z17	X18	Y18	Z18	X19	Y19	Z19	X20	Y20	Z20	X21	Y21	Z21	X22	Y22	Z22	X23	Y23	Z23	X24	Y24	Z24	X25	Y25	Z25	X26	Y26	Z26	X27	Y27	Z27	X28	Y28	Z28	X29	Y29	Z29	X30	Y30	Z30	X31	Y31	Z31	X32	Y32	Z32	X33	Y33	Z33	X34	Y34	Z34	X35	Y35	Z35	X36	Y36	Z36	X37	Y37	Z37	X38	Y38	Z38	X39	Y39	Z39	X40	Y40	Z40	X41	Y41	Z41	X42	Y42	Z42	X43	Y43	Z43	X44	Y44	Z44	X45	Y45	Z45	X46	Y46	Z46	X47	Y47	Z47	X48	Y48	Z48	X49	Y49	Z49	X50	Y50	Z50	X51	Y51	Z51	X52	Y52	Z52	X53	Y53	Z53	X54	Y54	Z54	X55	Y55	Z55	

189	1.253	1522.59680	968.79022	-176.80382	1490.20251	957.36993	-431.56348	1309.28760	950.28003	-238.22093	1296.79956	948.89917	-319.86093	1403.97839	1004.99713	-464.04050	1445.49744	1019.82220	-124.24996	1459.44934	865.76263	-104.03445	1484.35107	486.28955	-162.59624	1487.66504	426.51270	-164.97650	1541.63013	420.16257	-217.88029	1461.37170	63.95737	-223.79179	1410.88525	31.94543	-273.46033	1616.11719	47.47875	-287.68146	1584.53735	28.85997	-203.16319	1402.75940	856.79797	-480.75534	1419.23047	488.09943	-487.84598	1394.02271	448.29547	-495.37024	1444.52856	389.32767	-459.80328	1119.08020	244.88811	-407.47809	1084.19727	266.57339	-345.26312	1155.82031	82.05801	-391.18671	1120.55835	104.48230	-423.85300	1486.13013	484.42075	-300.05923	1480.91980	95.03133	-308.92172	1612.72388	42.41776	-249.21690	1469.28076	456.44205	-362.60229	1166.76892	225.85559	-335.26468	1168.23401	81.98827	-359.78104																																																																																		
190	1.260	1530.68811	969.01971	-176.14478	1498.29797	958.49365	-431.15216	1317.24670	951.08246	-238.01022	1304.83569	949.46429	-319.66632	1412.14233	1006.07892	-463.46729	1453.80579	1020.51019	-123.91071	1466.68433	866.13458	-102.99043	1487.31250	486.46509	-162.15462	1489.90503	426.56396	-164.57623	1543.64209	419.87976	-216.35919	1461.63074	64.15733	-223.70830	1411.02319	32.31289	-273.38278	1616.28760	47.32192	-287.61279	1584.63318	28.70866	-202.90544	1411.51990	857.80090	-480.50827	1434.27979	489.67438	-488.35727	1409.30591	449.95233	-495.73816	1460.28979	391.03174	-460.77994	1135.15735	246.22369	-407.16446	1099.66345	265.68488	-344.39343	1175.37598	84.72706	-394.92484	1139.87708	107.24603	-427.98016	1489.25012	484.25449	-299.63388	1481.14648	95.26338	-308.80740	1612.57410	42.17451	-248.15643	1484.81238	458.01611	-363.27597	1183.05078	226.71242	-335.32877	1187.35071	83.19762	-363.15781																																																																																		
191	1.267	1538.59863	969.44720	-175.50362	1506.41089	959.63147	-430.61307	1325.17688	951.90686	-237.98737	1312.87598	950.12482	-319.65817	1419.95032	1007.28650	-463.15799	1461.97864	1021.13812	-123.58806	1473.28687	866.53442	-102.90397	1490.00793	486.61981	-161.79263	1492.13269	426.63525	-164.33064	1545.74048	419.65497	-215.72475	1461.87048	64.42193	-223.67921	1411.21350	32.75747	-273.33429	1616.50354	47.17541	-287.54672	1584.73669	28.60533	-202.71211	1420.33350	858.86084	-480.38263	1449.16052	491.34424	-488.85208	1424.42554	451.49640	-495.93268	1475.90393	392.74957	-460.96991	1151.65515	246.50041	-407.14890	1115.39722	264.07642	-343.76715	1195.38892	86.09985	-399.37964	1159.54138	109.29125	-431.59924	1492.10388	483.95807	-299.31085	1481.44885	95.48318	-308.77521	1613.09241	42.13165	-248.12967	1499.68457	459.47745	-363.98544	1199.84448	226.55547	-335.77448	1207.16394	84.02808	-367.51312																																																																																		
192	1.273	1546.41968	969.84637	-174.81111	1514.62878	960.83911	-429.88840	1333.02844	952.81421	-238.14111	1320.92310	950.87866	-319.81927	1428.11694	1008.58929	-462.72684	1469.99341	1021.77051	-123.28353	1480.01563	866.66296	-103.16906	1492.55347	486.73901	-161.55173	1494.34094	426.76279	-164.20035	1547.89429	419.46805	-215.55408	1462.24146	64.63478	-223.44891	1411.42700	33.33927	-273.48413	1616.64661	46.98294	-287.54001	1584.86511	28.55636	-202.58965	1429.40137	859.95392	-480.31812	1463.81555	492.87979	-489.03308	1439.33972	453.03787	-495.94177	1491.72290	394.61270	-461.60178	1168.35352	245.98427	-407.19940	1131.48413	261.71091	-343.02765	1216.05066	86.99597	-403.94461	1179.59167	110.47212	-434.83777	1496.10535	483.27100	-299.21982	1481.78442	95.69406	-308.80066	1613.70874	41.85709	-249.18381	1515.01489	460.93585	-364.45453	1216.85535	225.70290	-335.38660	1227.88196	84.31358	-372.14636																																																																																		
193	1.280	1553.41479	970.43756	-173.99524	1522.89429	962.07623	-429.06583	1340.81055	953.70331	-238.45830	1328.96436	951.72333	-320.19507	1436.28381	1009.88220	-462.38235	1477.82300	1022.30280	-122.92753	1486.49182	866.96094	-103.31147	1495.02258	486.86975	-161.38988	1496.59497	426.90652	-164.18529	1550.33154	419.49466	-216.27942	1462.40881	65.07062	-223.79858	1411.65686	33.90318	-273.43625	1617.06714	46.90098	-287.46527	1584.99658	28.52068	-202.49278	1438.56018	861.09216	-480.32889	1478.27612	494.44897	-489.16315	1454.06677	454.49854	-495.83951	1507.45325	396.53918	-462.11484	1185.21167	244.86053	-407.30341	1147.83862	258.50580	-342.27942	1237.57910	87.57425	-408.39804	1200.18518	111.01068	-437.85507	1499.26331	482.61551	-299.12680	1482.18030	96.00909	-308.88861	1613.80103	41.78531	-248.99094	1529.55298	462.33041	-364.89102	1234.50146	224.29164	-335.77170	1249.17151	84.50375	-376.64435																																																																																		
194	1.287	1560.94141	970.90515	-173.15492	1531.64661	963.27478	-428.08008	1348.47913	954.63019	-238.96190	1336.95044	952.60333	-320.71768	1444.57031	1011.15448	-462.04279	1485.55688	1022.78607	-122.58251	1493.07507	867.18237	-103.16834	1497.51453	487.03992	-161.30351	1498.87415	427.04874	-164.23248	1552.55090	419.30554	-216.33383	1462.86450	65.41624	-223.57167	1411.91150	34.64793	-273.53107	1617.40295	46.81964	-287.48615	1585.13330	28.48531	-202.38599	1447.72546	862.29419	-480.36609	1492.45947	496.01431	-489.17606	1468.44934	456.46490	-496.26361	1523.13721	398.52490	-463.00067	1202.33289	243.10857	-407.33646	1164.53027	254.49594	-341.73758	1259.48816	87.94626	-412.50192	1221.23828	111.05272	-440.87195	1502.47913	482.08707	-299.05243	1482.81604	96.43491	-308.99658	1613.78101	41.50867	-248.92155	1545.27722	464.27341	-365.22034	1252.05273	222.39198	-336.82132	1271.28125	84.35244	-380.85739																																																																																		
195	1.293	1568.42444	971.28467	-172.23875	1539.40820	964.42249	-427.40930	1356.12341	955.53760	-239.59929	1344.99219	953.48975	-321.44434	1452.85864	1012.43524	-461.71838	1493.56824	1023.15808	-122.17677	1499.59326	867.51367	-102.45295	1500.09009	487.23932	-161.25357	1501.19470	427.27618	-164.30444	1554.92542	419.03702	-216.98663	1462.96729	65.94801	-224.03571	1412.09412	35.46383	-273.77887	1617.55212	46.69827	-287.53860	1585.27258	28.45289	-202.29323	1457.05969	863.51440	-480.47015	1506.54480	497.54449	-488.94211	1482.94409	457.79813	-495.78275	1538.55017	400.50830	-463.09143	1219.75562	240.71066	-407.34485	1181.20850	249.60320	-341.49106	1282.28430	88.35574	-416.33078	1242.98572	110.71819	-443.82950	1505.63940	481.88055	-299.02249	1483.30237	96.75754	-309.01871	1614.05090	41.33138	-248.94374	1560.09277	465.90866	-365.01743	1270.70837	219.98526	-336.87601	1293.77625	84.13477	-384.56189																																																																																		
196	1.300	1575.76685	971.54291	-171.34151	1547.63269	965.59222	-426.52197	1363.67078	956.34644	-240.30080	1352.93750	954.29382	-322.20825	1461.35730	1013.64124	-461.28290	1500.10522	1023.66144	-121.94245	1506.02942	867.73767	-102.95638	1502.72913	487.51807	-161.20370	1503.49036	427.61670	-164.41246	1557.32935	418.81561	-217.29333	1462.72021	66.40915	-224.46960	1412.46057	36.23477	-274.04141	1617.90698	46.63018	-287.43506	1585.40405	28.42223	-202.20840	1466.46460	864.72418	-480.65945	1520.45825	499.06888	-488.57269	1497.37646	458.99631	-495.10794	1554.04382	402.53244	-463.20529	1237.56311	237.63452	-407.58743	1198.09595	243.98146	-341.51422	1305.10852	88.22110	-419.57059	1265.60840	110.02927	-446.79599	1508.91431	482.13535	-298.96713	1483.97681	97.17464	-309.15076	1614.57996	41.39872	-248.73688	1575.60535	468.16315	-365.08997	1288.81323	217.17470	-337.30948	1316.81921	83.58619	-387.67590																																																																																		
197	1.307	1583.02502	971.56177	-170.36371	1555.88098	966.71320	-425.61862	1371.13086	957.12128	-241.10147	1360.72314	955.03259	-323.05090	1469.37366	1014.75372	-461.24255	1507.41296	1023.89569	-121.60602	1512.31946	867.90234	-102.79938	1505.43555	487.80557	-161.24818	1505.75793	428.00714	-164.52483	1559.80737	418.63898	-217.73277	1463.45361	67.18035	-224.48409	1412.91614	36.80431	-274.73572	1618.40063	46.58662	-287.26102	1585.54248	28.38560	-202.12415	1475.78162	865.93152	-480.89789	1534.15784	500.54565	-488.13065	1511.51721	460.20746	-494.36072	1569.25354	404.58527	-462.84399	1255.80188	233.77654	-408.00681	1215.34985	237.79581	-341.93958	1328.60828	87.61433	-422.14120	1288.89331	108.92519	-449.57410	1511.64453	482.86667	-299.22177	1484.81677	97.82420	-309.41827	1615.13501	41.55935	-247.92775	1589.79126	470.14517	-364.75421	1307.21655	213.62639	-338.31082	1340.07043	82.68622	-390.49142																																																																																		
198	1.313	1590.31580	971.59137	-169.41574	1564.08826	967.72095	-424.67188	1378.33215	958.02844	-242.07187	1368.52734	955.62122	-323.97534	1477.46887	1015.78986	-461.03299	1514.45703	1024.06885	-121.31606	1517.92517	867.78955	-102.67629	1508.16748	488.25055	-161.27222	1507.86768	428.43436	-164.53081	1562.19141	418.68356	-217.19595	1463.55664	67.59485	-224.98932	1413.34204	37.69598	-275.45889	1618.89111	46.55918	-287.10333	1585.65613	28.37878	-202.11049	1485.17798	867.06555	-481.12289	1547.78381	501.87732	-487.53864	1525.51440	461.28201	-493.47607	1584.45569	406.50961	-462.68069	1274.30347	229.36911	-408.58884	1232.97900	231.05330	-342.62393	1352.64270	86.64714	-424.34976	1312.61804	107.31710	-451.96689	1514.62756	483.94394	-299.30151	1485.58044	98.57287	-309.45660	1615.37329	41.45851	-247.76315	1603.19312	472.10193	-364.09583	1325.99512	210.01624	-338.15393	1363.92346	81.49875	-392.67831																																																																																		
199	1.320	1597.54895	971.62250	-168.41302	1572.26208	968.63086	-423.77567	1385.98877	958.46375	-242.98438	1376.17798	956.23853	-325.04202	1485.80371	1016.70569	-460.86536	1521.24817	1024.22742	-121.04807	1524.59412	868.07141	-102.29803	1510.66125	488.73785	-161.09245	1509.85413	428.93463	-164.51678	1564.38000	418.84097	-215.74780	1463.53369	68.30308	-225.59831	1413.83203	38.76996	-276.24500	1619.46289	46.54680	-286.86166	1585.76794	28.39938	-202.17940	1494.52344	868.14795	-481.37140	1561.17981	503.10571	-486.82660	1539.38306	462.23810	-492.57858	1599.36780	408.54285	-462.34775	1292.87659	224.60492	-409.29916	1251.08826	223.79092	-343.69980	1376.83215	85.32914	-426.28265	1336.44312	105.16216	-453.91684	1517.73193	485.13980	-299.41861	1486.44897	99.34119	-309.76978	1615.57764	41.45750	-247.78256	1616.87280	474.66083	-363.66644	1345.03345	205.92886	-338.66498	1387.96216	80.21469	-394.32559																																																																																		
200	1.327	1604.51111	971.62189	-167.43791	1580.50757	969.45416	-422.89566	1393.20520	958.86493	-243.93074	1383.90930	956.62518	-326.12619	1493.99182	1017.48608	-460.68103	1528.00659	1024.38147	-120.81677	1530.70105	868.41742	-101.63246	1513.37769	489.33023	-161.09883	1511.81079	429.50732	-164.52036	1566.77075	419.01794	-214.84256	1464.15625	69.51220	-225.66927	1414.08411	39.99096	-276.92081	1619.91333	46.52078	-286.73999	1585.84338	28.43582	-202.25940	1503.83752	869.15210	-481.59348	1574.38220	504.19785	-486.04626	1553.00769	463.06561	-491.62500	1614.20032	410.50647	-462.24637	1311.99609	218.98764	-410.05511	1269.85999	216.07791	-344.72714	1401.28467	83.54874	-427.90466	1360.39563	102.38651	-455.42371	1521.11365	486.26221	-299.50690	1487.41846	100.18048	-309.99792	1615.35217	40.19157	-249.00096	1630.02026	477.23138	-362.96115	1364.41382	201.51102	-339.26031	1412.35144	78.35646	-396.13950																																																																																		
